<svg xmlns="http://www.w3.org/2000/svg" id="Layer_1" viewBox="0 0 407 401">
  <path fill="#375987" d="M405.3 78.5L324.5 2.4H0v341.3h229.6l111.7 55.9v-55.9h64V78.5zm-74.6-41l43.6 41h-43.6v-41zM384 322.4h-64v42.7l-85.3-42.7H21.4V23.7h288v76.2H384v222.5z" class="st0"/>
  <path fill="#375987" d="M330.7 226.4h-256a10.7 10.7 0 0 0 0 21.4h256a10.7 10.7 0 0 0 0-21.4zM330.7 162.4h-256a10.7 10.7 0 0 0 0 21.4h256a10.7 10.7 0 0 0 0-21.4zM213.3 98.4H74.7a10.7 10.7 0 0 0 0 21.4h138.7c5.9 0 10.7-4.8 10.7-10.7a10.9 10.9 0 0 0-10.8-10.7z" class="st0"/>
</svg>
