<svg xmlns="http://www.w3.org/2000/svg" id="Layer_1" viewBox="0 0 512 512">
  <path fill="#375987" d="M24.1 0h185.1c12.8 0 23.1 10.4 23.1 23.3S222 46.5 209.2 46.5H80L318.1 286c9 9.1 9 23.8 0 32.9a23 23 0 0 1-32.8 0L47.3 79.5v130c0 12.9-10.4 23.3-23.1 23.3S1 222.3 1 209.5V23.3A23.2 23.2 0 0 1 24.1 0z" class="st0"/>
  <path fill="#375987" d="M116.7 232.7a23.2 23.2 0 0 1 23.1 23.3v209.5h323.9V139.6H255.5c-12.8 0-23.1-10.4-23.1-23.3S242.8 93 255.5 93h231.4a23.2 23.2 0 0 1 23.1 23.3v372.4a23.2 23.2 0 0 1-23.1 23.3H116.7a23.2 23.2 0 0 1-23.1-23.3V256a23 23 0 0 1 23.1-23.3z" class="st0"/>
</svg>
