<?xml version="1.0" encoding="utf-8"?>
<!-- Generator: Adobe Illustrator 22.1.0, SVG Export Plug-In . SVG Version: 6.00 Build 0)  -->
<svg version="1.1" id="Layer_1" xmlns="http://www.w3.org/2000/svg" xmlns:xlink="http://www.w3.org/1999/xlink" x="0px" y="0px"
	 viewBox="0 0 512 512" style="enable-background:new 0 0 512 512;" xml:space="preserve">
<style type="text/css">
	.st0{fill:#231F20;}
</style>
<g>
	<g>
		<path class="st0" d="M24.1,0h185.1c12.8,0,23.1,10.4,23.1,23.3S222,46.5,209.2,46.5H80l238.1,239.5c9,9.1,9,23.8,0,32.9
			c-4.5,4.5-10.4,6.8-16.4,6.8s-11.8-2.3-16.4-6.8L47.3,79.5v130c0,12.9-10.4,23.3-23.1,23.3S1,222.3,1,209.5V23.3
			C1,10.4,11.4,0,24.1,0z"/>
	</g>
</g>
<g>
	<g>
		<path class="st0" d="M116.7,232.7c12.8,0,23.1,10.4,23.1,23.3v209.5h323.9V139.6H255.5c-12.8,0-23.1-10.4-23.1-23.3
			s10.4-23.3,23.1-23.3h231.4c12.8,0,23.1,10.4,23.1,23.3v372.4c0,12.9-10.4,23.3-23.1,23.3H116.7c-12.8,0-23.1-10.4-23.1-23.3V256
			C93.5,243.1,103.9,232.7,116.7,232.7z"/>
	</g>
</g>
</svg>
